<mxfile host="app.diagrams.net" agent="Mozilla/5.0 (Windows NT 10.0; Win64; x64) AppleWebKit/537.36 (KHTML, like Gecko) Chrome/136.0.0.0 Safari/537.36" version="27.0.9">
  <diagram name="Página-1" id="BHFB_RENCx6fyMEJUNf1">
    <mxGraphModel dx="1321" dy="703" grid="1" gridSize="10" guides="1" tooltips="1" connect="1" arrows="1" fold="1" page="0" pageScale="1" pageWidth="827" pageHeight="1169" math="0" shadow="0">
      <root>
        <mxCell id="0" />
        <mxCell id="1" parent="0" />
        <mxCell id="ZNe7VqRC1rOcIuQFFcWz-22" style="edgeStyle=orthogonalEdgeStyle;rounded=0;orthogonalLoop=1;jettySize=auto;html=1;exitX=0;exitY=0;exitDx=120;exitDy=95;exitPerimeter=0;" edge="1" parent="1" source="ZNe7VqRC1rOcIuQFFcWz-1" target="ZNe7VqRC1rOcIuQFFcWz-4">
          <mxGeometry relative="1" as="geometry" />
        </mxCell>
        <mxCell id="ZNe7VqRC1rOcIuQFFcWz-23" value="HTTP/HTTPS" style="edgeLabel;html=1;align=center;verticalAlign=middle;resizable=0;points=[];" vertex="1" connectable="0" parent="ZNe7VqRC1rOcIuQFFcWz-22">
          <mxGeometry x="-0.2352" y="-3" relative="1" as="geometry">
            <mxPoint as="offset" />
          </mxGeometry>
        </mxCell>
        <mxCell id="ZNe7VqRC1rOcIuQFFcWz-1" value="&lt;font style=&quot;vertical-align: inherit;&quot;&gt;&lt;font style=&quot;vertical-align: inherit;&quot;&gt;Usuário interno&lt;/font&gt;&lt;/font&gt;" style="verticalAlign=top;align=left;spacingTop=8;spacingLeft=2;spacingRight=12;shape=cube;size=10;direction=south;fontStyle=4;html=1;whiteSpace=wrap;" vertex="1" parent="1">
          <mxGeometry x="320" y="50" width="180" height="120" as="geometry" />
        </mxCell>
        <mxCell id="ZNe7VqRC1rOcIuQFFcWz-2" value="&lt;font style=&quot;vertical-align: inherit;&quot;&gt;&lt;font style=&quot;vertical-align: inherit;&quot;&gt;nvegador web&lt;/font&gt;&lt;/font&gt;" style="shape=folder;fontStyle=1;spacingTop=10;tabWidth=40;tabHeight=14;tabPosition=left;html=1;whiteSpace=wrap;" vertex="1" parent="1">
          <mxGeometry x="355" y="90" width="100" height="70" as="geometry" />
        </mxCell>
        <mxCell id="ZNe7VqRC1rOcIuQFFcWz-4" value="Servidor de aplicação" style="verticalAlign=top;align=left;spacingTop=8;spacingLeft=2;spacingRight=12;shape=cube;size=10;direction=south;fontStyle=4;html=1;whiteSpace=wrap;" vertex="1" parent="1">
          <mxGeometry x="320" y="290" width="180" height="120" as="geometry" />
        </mxCell>
        <mxCell id="ZNe7VqRC1rOcIuQFFcWz-5" value="App Server(Serviços de venda, Relatórios, Estoque e Autenticação)" style="shape=folder;fontStyle=1;spacingTop=10;tabWidth=40;tabHeight=14;tabPosition=left;html=1;whiteSpace=wrap;" vertex="1" parent="1">
          <mxGeometry x="330" y="330" width="150" height="70" as="geometry" />
        </mxCell>
        <mxCell id="ZNe7VqRC1rOcIuQFFcWz-14" value="Servidor de Banco De Dados" style="verticalAlign=top;align=left;spacingTop=8;spacingLeft=2;spacingRight=12;shape=cube;size=10;direction=south;fontStyle=4;html=1;whiteSpace=wrap;" vertex="1" parent="1">
          <mxGeometry x="120" y="510" width="210" height="130" as="geometry" />
        </mxCell>
        <mxCell id="ZNe7VqRC1rOcIuQFFcWz-15" value="PostegreSQL(Tabelas:produto, cliente, venda e etc" style="shape=folder;fontStyle=1;spacingTop=10;tabWidth=40;tabHeight=14;tabPosition=left;html=1;whiteSpace=wrap;" vertex="1" parent="1">
          <mxGeometry x="135" y="550" width="180" height="80" as="geometry" />
        </mxCell>
        <mxCell id="ZNe7VqRC1rOcIuQFFcWz-16" value="Serviço Externo Cupom Fiscal" style="verticalAlign=top;align=left;spacingTop=8;spacingLeft=2;spacingRight=12;shape=cube;size=10;direction=south;fontStyle=4;html=1;whiteSpace=wrap;" vertex="1" parent="1">
          <mxGeometry x="560" y="510" width="210" height="140" as="geometry" />
        </mxCell>
        <mxCell id="ZNe7VqRC1rOcIuQFFcWz-17" value="API REST de Emissão de cupom fiscal" style="shape=folder;fontStyle=1;spacingTop=10;tabWidth=40;tabHeight=14;tabPosition=left;html=1;whiteSpace=wrap;" vertex="1" parent="1">
          <mxGeometry x="570" y="550" width="180" height="80" as="geometry" />
        </mxCell>
        <mxCell id="ZNe7VqRC1rOcIuQFFcWz-18" style="edgeStyle=orthogonalEdgeStyle;rounded=0;orthogonalLoop=1;jettySize=auto;html=1;exitX=0;exitY=0;exitDx=120;exitDy=95;exitPerimeter=0;entryX=0.595;entryY=0.005;entryDx=0;entryDy=0;entryPerimeter=0;" edge="1" parent="1" source="ZNe7VqRC1rOcIuQFFcWz-4" target="ZNe7VqRC1rOcIuQFFcWz-14">
          <mxGeometry relative="1" as="geometry" />
        </mxCell>
        <mxCell id="ZNe7VqRC1rOcIuQFFcWz-19" value="JDBC" style="edgeLabel;html=1;align=center;verticalAlign=middle;resizable=0;points=[];" vertex="1" connectable="0" parent="ZNe7VqRC1rOcIuQFFcWz-18">
          <mxGeometry x="-0.476" relative="1" as="geometry">
            <mxPoint as="offset" />
          </mxGeometry>
        </mxCell>
        <mxCell id="ZNe7VqRC1rOcIuQFFcWz-20" style="edgeStyle=orthogonalEdgeStyle;rounded=0;orthogonalLoop=1;jettySize=auto;html=1;exitX=0;exitY=0;exitDx=55;exitDy=0;exitPerimeter=0;entryX=0;entryY=0;entryDx=0;entryDy=100;entryPerimeter=0;" edge="1" parent="1" source="ZNe7VqRC1rOcIuQFFcWz-4" target="ZNe7VqRC1rOcIuQFFcWz-16">
          <mxGeometry relative="1" as="geometry" />
        </mxCell>
        <mxCell id="ZNe7VqRC1rOcIuQFFcWz-21" value="REST API" style="edgeLabel;html=1;align=center;verticalAlign=middle;resizable=0;points=[];" vertex="1" connectable="0" parent="ZNe7VqRC1rOcIuQFFcWz-20">
          <mxGeometry x="0.2561" y="1" relative="1" as="geometry">
            <mxPoint as="offset" />
          </mxGeometry>
        </mxCell>
      </root>
    </mxGraphModel>
  </diagram>
</mxfile>
